<?xml version="1.0" standalone="no"?>
<!DOCTYPE svg PUBLIC "-//W3C//DTD SVG 20010904//EN"
 "http://www.w3.org/TR/2001/REC-SVG-20010904/DTD/svg10.dtd">
<svg version="1.0" xmlns="http://www.w3.org/2000/svg"
 width="480.000000pt" height="480.000000pt" viewBox="0 0 480.000000 480.000000"
 preserveAspectRatio="xMidYMid meet">
<metadata>
Created by potrace 1.14, written by Peter Selinger 2001-2017
</metadata>
<g transform="translate(0.000000,480.000000) scale(0.100000,-0.100000)"
fill="#000000" stroke="none">
<path d="M3270 4590 c-9 -6 -10 -10 -3 -10 6 0 15 5 18 10 8 12 4 12 -15 0z"/>
<path d="M3123 4528 c-13 -6 -23 -14 -23 -19 0 -7 -61 -81 -179 -218 -61 -71
-64 -77 -57 -116 7 -34 67 -105 91 -105 20 0 27 -15 20 -43 -5 -20 -21 -27
-128 -55 -218 -57 -410 -101 -507 -116 -260 -40 -466 -78 -476 -89 -7 -7 -17
-43 -23 -82 -6 -38 -17 -97 -25 -130 -7 -33 -25 -112 -40 -175 -59 -259 -110
-463 -140 -565 -13 -44 -36 -122 -50 -174 -14 -52 -28 -96 -30 -98 -6 -6 -151
-31 -225 -38 l-74 -7 6 83 c4 46 7 125 7 174 l0 90 35 22 c38 25 75 88 75 127
0 14 -14 41 -31 61 l-32 36 32 32 c41 43 40 71 -4 110 -20 17 -35 40 -35 52 0
12 17 46 38 76 71 104 85 137 78 186 -3 25 -15 57 -26 73 -63 88 -183 43 -249
-93 -31 -63 -39 -170 -17 -233 12 -36 13 -50 4 -55 -18 -11 -25 -3 -31 38 -9
56 -61 131 -102 149 -30 12 -39 12 -74 -2 -21 -8 -55 -32 -74 -52 -19 -20 -46
-45 -61 -55 -14 -10 -29 -30 -32 -45 -4 -15 -16 -37 -27 -50 -14 -15 -24 -43
-28 -80 -4 -31 -15 -77 -24 -102 -26 -66 -15 -110 45 -172 l49 -50 73 6 c140
12 158 15 169 21 6 4 17 -2 25 -14 8 -12 22 -21 30 -21 11 0 14 -22 14 -122 0
-125 -14 -198 -66 -342 -29 -82 11 -138 101 -140 40 -1 50 3 75 31 22 25 42
34 86 42 61 12 184 15 184 5 0 -5 -104 -348 -211 -694 -22 -74 -55 -182 -71
-240 -17 -58 -39 -131 -50 -162 -11 -31 -17 -61 -14 -67 4 -5 28 -13 54 -17
26 -3 97 -19 157 -34 188 -47 364 -88 535 -125 156 -33 276 -61 310 -71 17 -4
34 -41 56 -119 22 -80 16 -198 -10 -194 -6 1 -22 -1 -36 -5 -17 -5 -41 -1 -70
12 -98 41 -210 64 -324 65 -107 1 -113 0 -176 -32 -36 -19 -80 -45 -98 -59
-69 -52 -78 -121 -24 -178 16 -16 31 -37 35 -47 4 -9 15 -20 24 -24 10 -3 29
-16 43 -29 41 -37 143 -65 270 -74 63 -4 118 -6 122 -4 4 3 28 5 54 6 26 0 68
6 93 12 33 9 60 9 96 2 63 -13 417 -8 470 6 53 14 144 19 164 8 18 -10 184
-47 216 -48 11 -1 84 -4 162 -8 141 -7 143 -6 198 21 66 32 85 63 85 138 0
101 -67 183 -179 218 -86 27 -221 19 -291 -16 -45 -23 -46 -23 -69 -4 -13 10
-38 19 -57 19 l-34 0 0 104 c0 57 3 118 6 136 6 27 10 31 28 25 96 -33 230 -1
327 77 32 26 69 115 69 166 l0 49 61 17 60 17 24 -25 c26 -29 71 -34 108 -14
12 6 46 12 76 12 44 1 56 5 69 23 10 16 24 23 46 23 31 0 76 30 76 51 0 6 7 6
19 -1 55 -29 121 14 121 78 0 11 6 19 13 19 34 -3 99 17 121 38 30 27 33 53
11 95 -23 45 -42 50 -115 35 -60 -13 -66 -12 -92 6 -19 14 -28 29 -28 49 0 27
-15 45 -64 75 -15 9 -11 25 31 149 35 101 57 148 81 174 24 28 32 45 32 74 0
71 -36 117 -98 127 -32 6 -43 16 -84 76 -26 39 -66 87 -88 107 l-41 37 16 61
c9 34 24 85 35 114 10 28 43 128 74 221 30 94 67 202 82 240 14 39 41 111 59
160 89 242 131 343 227 548 33 70 58 133 55 140 -3 8 -34 19 -69 25 -99 17
-116 21 -223 49 -129 33 -195 47 -330 73 -177 34 -205 41 -205 51 0 5 5 9 11
9 5 0 35 12 66 26 l56 27 -6 81 c-6 90 -46 253 -71 291 -9 14 -26 31 -39 39
-58 39 -232 59 -284 34z m486 -2547 c7 -15 35 -53 63 -82 l50 -54 -64 -124
c-66 -129 -106 -176 -140 -165 -51 16 -94 -28 -113 -116 -4 -19 -23 -52 -41
-73 -19 -20 -34 -46 -34 -57 0 -11 -6 -20 -14 -20 -8 0 -20 -2 -28 -5 -8 -3
-19 9 -28 31 l-15 37 95 93 c79 77 98 103 109 142 8 26 19 61 26 77 21 52 105
315 105 330 0 25 17 17 29 -14z m-541 -920 c-24 -43 -67 -65 -108 -54 -17 5
-12 13 42 63 52 48 65 56 76 45 12 -11 10 -19 -10 -54z m-478 -320 c18 -69 30
-143 30 -192 0 -48 -1 -49 -31 -49 -17 0 -40 -5 -51 -11 -25 -13 -40 -1 -40
32 -1 25 30 245 38 267 7 24 43 -6 54 -47z"/>
</g>
</svg>
